<svg width="244" height="241" fill="none" xmlns="http://www.w3.org/2000/svg"><style>@media (prefers-color-scheme:dark){path{fill:#fff}}</style><path d="M234.856 98.866c1.714-36.144-15.007-73.082-49.335-89.714-34.27-17.038-79.213-8.85-109.534 12.713-8.312 5.836-15.324 13.127-21.075 21.297-48.487 24.48-71.835 79.334-40.974 128.418 15.248 23.696 38.643 42.878 66.643 50.141a98.172 98.172 0 0014.776 2.371c46.252 28.938 106.596 21.071 134.413-30.572 13.032-24.745 17.376-54.307 10.056-81.384-1.271-4.553-2.947-8.973-4.96-13.26l-.01-.01zm-5.086-9.378c-14.303-23.225-38.604-41.519-62.983-52.05-18.898-7.97-40.242-12.504-60.864-10.568 8.303-3.447 17.068-5.903 25.852-7.404 53.005-8.916 87.082 24.83 97.995 70.012v.01zM36.563 171.353C.754 130.43 13.997 83.009 50.04 50.793c-4.065 7.065-7.301 14.601-9.69 22.308-7.205 23.357-8.158 48.035-2.495 71.571 1.85 7.726 4.47 15.253 7.821 22.375a1.93 1.93 0 002.11 1.048c1.03-.208 1.695-1.19 1.483-2.201-3.13-14.96-4.18-30.005-3.053-44.786 2.533-28.324 11.471-57.782 32.806-77.625 5.866-5.26 12.502-9.643 19.591-13.241 13.736.453 27.076 3.419 39.665 7.905 33.355 11.56 72.046 41.802 82.478 75.868 2.533 8.991 3.602 18.625 3.304 28.353-25.564 40.678-79.782 67.925-127.19 63.505-23.868-2.625-44.914-16.868-60.306-34.51v-.01zm161.855 35.427c-25.12 25.122-59.978 27.314-92.158 17.671 21.932-.406 43.652-7.405 62.791-17.784 21.71-12.118 40.714-29.713 52.523-51.407a105.821 105.821 0 001.762-3.419c-2.504 20.504-11.019 40.574-24.908 54.939h-.01z" fill="#000"/></svg>